HIERARCHY
ROOT Hips
{
  OFFSET -125.086 92.215 135.881
  CHANNELS 6 Xposition Yposition Zposition Zrotation Xrotation Yrotation
  JOINT LeftUpLeg
  {
    OFFSET 8.64259 1.95398 -2.38835
    CHANNELS 3 Zrotation Xrotation Yrotation
    JOINT LeftLeg
    {
      OFFSET 43.7702 0 0
      CHANNELS 3 Zrotation Xrotation Yrotation
      JOINT LeftFoot
      {
        OFFSET 40.6238 0 0
        CHANNELS 3 Zrotation Xrotation Yrotation
        JOINT LeftToeBase
        {
          OFFSET 12.7242 0 0
          CHANNELS 3 Zrotation Xrotation Yrotation
          End Site
          {
            OFFSET 0 0 0
          }
        }
      }
    }
  }
  JOINT RightUpLeg
  {
    OFFSET -8.2249 1.95398 -2.59336
    CHANNELS 3 Zrotation Xrotation Yrotation
    JOINT RightLeg
    {
      OFFSET 43.5653 0 0
      CHANNELS 3 Zrotation Xrotation Yrotation
      JOINT RightFoot
      {
        OFFSET 40.6238 0 0
        CHANNELS 3 Zrotation Xrotation Yrotation
        JOINT RightToeBase
        {
          OFFSET 12.7242 0 0
          CHANNELS 3 Zrotation Xrotation Yrotation
          End Site
          {
            OFFSET 0 0 0
          }
        }
      }
    }
  }
  JOINT Spine
  {
    OFFSET 0.165834 0.87714 6.61349
    CHANNELS 3 Zrotation Xrotation Yrotation
    JOINT Spine1
    {
      OFFSET 7.38963 1.71661e-005 0
      CHANNELS 3 Zrotation Xrotation Yrotation
      JOINT Spine2
      {
        OFFSET 11.9445 1.14441e-005 0
        CHANNELS 3 Zrotation Xrotation Yrotation
        JOINT Spine3
        {
          OFFSET 14.7254 4.19617e-005 0
          CHANNELS 3 Zrotation Xrotation Yrotation
          JOINT Spine4
          {
            OFFSET 10.9679 0 0
            CHANNELS 3 Zrotation Xrotation Yrotation
            JOINT RightShoulder
            {
              OFFSET 2.46616 -1.6653 3.69651
              CHANNELS 3 Zrotation Xrotation Yrotation
              JOINT RightArm
              {
                OFFSET 13.0012 0 0
                CHANNELS 3 Zrotation Xrotation Yrotation
                JOINT RightForeArm
                {
                  OFFSET 28.7848 1.52588e-005 0
                  CHANNELS 3 Zrotation Xrotation Yrotation
                  JOINT RightHand
                  {
                    OFFSET 26.5688 1.52588e-005 0
                    CHANNELS 3 Zrotation Xrotation Yrotation
                    End Site
                    {
                      OFFSET 0 0 0
                    }
                  }
                }
              }
            }
            JOINT LeftShoulder
            {
              OFFSET 2.38034 -1.29275 -3.7523
              CHANNELS 3 Zrotation Xrotation Yrotation
              JOINT LeftArm
              {
                OFFSET 16.3182 6.10352e-005 0
                CHANNELS 3 Zrotation Xrotation Yrotation
                JOINT LeftForeArm
                {
                  OFFSET 27.0901 0 0
                  CHANNELS 3 Zrotation Xrotation Yrotation
                  JOINT LeftHand
                  {
                    OFFSET 24.5451 1.52588e-005 0
                    CHANNELS 3 Zrotation Xrotation Yrotation
                    End Site
                    {
                      OFFSET 0 0 0
                    }
                  }
                }
              }
            }
            JOINT Neck
            {
              OFFSET 5.0226 -0.0266342 0
              CHANNELS 3 Zrotation Xrotation Yrotation
              JOINT Head
              {
                OFFSET 6.69363 2.86102e-005 0
                CHANNELS 3 Zrotation Xrotation Yrotation
                End Site
                {
                  OFFSET 0 0 0
                }
              }
            }
          }
        }
      }
    }
  }
}
MOTION
Frames:	17
Frame Time:	0.0416667
-281.544 89.8479 276.288 90.9721 26.8537 85.6334 -177.204 -15.9277 81.7461 -0.0443426 0.43478 1.00832 71.0958 2.05867 12.1846 32.8771 -0.213764 -1.71548 167.272 3.543 77.6715 -24.9301 -39.0034 5.92776 61.6 -5.93471 -9.81773 58.5782 -4.16405 2.88987 2.07048 5.20644 -89.7698 16.4833 4.2006 -0.243171 4.81908 4.19571 -0.428154 -17.7683 4.07912 1.03269 2.24434 4.07915 1.03269 124.563 -56.0138 -50.1235 18.4951 -0.376983 5.79136 -158.139 -23.2622 -137.823 12.4828 -8.32365 -69.6384 -67.6911 -44.4257 113.31 -40.5316 -14.8821 -6.27286 10.99 83.3823 -8.23997 0.639431 -0.273912 -11.3366 -47.1533 -6.00116 -2.74784 -6.0327 -6.99629 -15.3211 
-281.612 89.8833 276.303 90.8389 26.7873 85.598 -177.36 -15.7601 81.5402 -0.0499482 0.226896 1.04369 70.971 1.89904 11.9735 32.7627 -0.234793 -1.31402 167.222 3.49783 77.6088 -24.5027 -39.1659 5.92452 61.9439 -6.23791 -9.77343 57.6098 -4.21391 1.77865 2.07296 5.2058 -89.7557 16.4829 4.21266 -0.216802 4.81867 4.19573 -0.402338 -17.7691 4.08272 1.06147 2.24352 4.08272 1.06147 124.431 -55.8765 -50.2576 18.492 -0.577661 5.51449 -145.617 -33.0851 -132.522 35.4346 -18.6226 -58.0119 -67.6286 -44.5073 113.394 -40.6668 -15.0948 -6.69106 10.2237 84.1707 -7.15746 0.563003 -0.273427 -11.5037 -46.9041 -6.06417 -2.75369 -6.16134 -7.03559 -15.2392 
-281.772 89.9827 276.445 90.4355 26.8003 85.4277 -177.566 -15.2331 81.1928 -0.0404195 0.117252 0.93365 70.6661 1.78012 11.9088 32.9138 -0.288784 -0.824967 167.089 3.32829 77.4978 -23.3066 -39.0568 5.86534 62.6171 -6.80272 -10.5154 56.1509 -3.93912 2.22403 2.04989 5.20166 -89.6865 16.4851 4.20235 -0.0753795 4.82099 4.19579 -0.260598 -17.7657 4.03039 1.19318 2.24695 4.03039 1.19318 124.395 -56.0547 -50.3724 18.4924 0.0169843 4.76689 -138.165 -39.5026 -128.879 40.1581 -17.6427 -50.5513 -67.7627 -44.1023 113.259 -41.0653 -14.7866 -6.96261 10.936 83.5945 -7.82339 1.10462 -0.29755 -11.1806 -45.7287 -6.06561 -3.1027 -6.9147 -6.98626 -14.7142 
-282.006 90.1043 276.681 89.8541 26.8337 85.1604 -177.772 -14.4467 80.7851 -0.046209 -0.0835157 0.701896 70.5146 1.8283 11.9315 32.6435 -0.223313 -1.31297 166.858 3.02333 77.3257 -21.4469 -38.8611 5.80435 63.7087 -7.72792 -11.5058 53.6054 -3.53383 2.67012 2.01974 5.20692 -89.5885 16.4707 4.19294 0.125022 4.8065 4.19427 -0.0599728 -17.7786 3.96119 1.38138 2.23402 3.9612 1.38138 124.393 -56.4858 -50.5293 18.3751 1.02435 3.83244 -125.157 -47.8658 -120.752 45.1816 -14.9557 -39.5348 -67.9832 -43.723 112.977 -41.697 -14.5656 -7.62573 9.37449 82.9836 -5.98925 1.10032 -0.294492 -11.0916 -43.9713 -6.11451 -3.72857 -7.96338 -7.00286 -13.7877 
-282.319 90.2911 276.992 89.0749 26.9044 84.84 -178.299 -13.4069 80.053 0.00739955 -0.485964 0.648953 69.8395 1.54507 11.7014 33.3152 -0.339508 -0.643606 166.374 2.6371 77.0132 -18.7699 -38.4888 5.95294 65.0797 -8.91417 -12.7035 50.0284 -2.91965 4.21823 1.97984 5.21604 -89.4713 16.4474 4.17415 0.366164 4.78313 4.18616 0.181783 -17.7996 3.87083 1.60558 2.213 3.87081 1.60557 124.054 -56.6802 -51.0689 18.9473 3.03243 2.47696 -112.343 -55.5704 -111.38 40.7736 -10.3662 -32.0237 -68.1209 -43.396 112.818 -42.5112 -14.3939 -8.49702 8.89893 82.5817 -5.21528 0.805251 -0.272743 -10.9316 -41.5111 -6.17265 -4.33451 -9.49021 -6.92754 -12.8705 
-282.71 90.4165 277.394 88.1036 27.0141 84.5581 -178.412 -12.0305 79.6312 -0.178646 -0.548572 0.245653 69.7597 1.68436 11.8218 32.789 -0.233455 -1.36116 166.233 2.04269 77.0299 -15.7517 -37.9063 5.50854 66.7988 -10.356 -13.4394 45.6408 -2.41393 3.98988 1.93393 5.22596 -89.3509 16.4222 4.14489 0.615462 4.75777 4.16796 0.432118 -17.822 3.76804 1.83436 2.19065 3.76805 1.83437 123.622 -56.7887 -51.7044 19.4734 4.69254 1.29879 -95.0429 -61.0013 -97.6451 37.4418 -5.98595 -22.281 -68.2148 -43.1222 112.718 -43.1915 -13.8108 -9.32864 9.32055 81.8629 -5.54006 0.533598 -0.266263 -11.2868 -38.4556 -6.37704 -4.87624 -11.4647 -6.91317 -11.8904 
-283.174 90.3041 277.9 87.0868 27.1905 84.2408 -178.75 -10.6966 79.0266 -0.0695962 -0.703206 0.0279769 69.3433 1.70962 11.9739 32.5236 -0.166536 -1.85921 166.135 2.1071 77.0001 -13.9258 -37.1233 5.13603 69.3203 -12.5624 -14.5373 40.4451 -1.78535 4.82171 1.88129 5.24356 -89.2129 16.3812 4.11137 0.902022 4.71659 4.14709 0.719895 -17.8594 3.65002 2.09737 2.15329 3.65002 2.09738 123.203 -56.9707 -52.3472 20.1457 6.65589 0.00753657 -77.6633 -64.7507 -82.932 31.091 -2.81221 -14.8242 -68.3227 -42.7894 112.606 -43.9648 -13.3448 -10.3489 8.5022 81.5408 -4.51143 0.518297 -0.277453 -11.7764 -34.7283 -6.53942 -5.62665 -13.9418 -6.81541 -10.8011 
-283.653 90.1661 278.446 85.9502 27.4183 83.9653 -179.212 -9.17157 78.3207 -0.0254806 -0.711452 -0.0647772 68.5675 1.48504 12.1336 33.0182 -0.264184 -1.25158 166.075 2.43694 77.0011 -12.2763 -36.8787 4.90047 71.3092 -14.9622 -16.7523 35.609 -1.33015 7.02185 1.82073 5.2698 -89.071 16.3218 4.06413 1.19924 4.6568 4.11297 1.01893 -17.9144 3.5157 2.36638 2.09825 3.51571 2.36637 122.857 -57.2843 -52.9305 20.5666 8.14618 -1.21101 -59.5628 -66.2425 -67.0494 24.1038 -0.852392 -8.88939 -68.4413 -42.652 112.438 -44.3403 -12.6237 -11.3647 7.17132 80.7632 -3.33123 0.191618 -0.251909 -11.5661 -30.7168 -6.78476 -6.52129 -16.4335 -6.86157 -9.24658 
-284.115 90.0291 279.008 84.7751 27.7483 83.7919 -179.314 -7.63386 77.9496 -0.0965253 -0.751032 -0.395399 68.166 1.56172 11.8984 32.9058 -0.257843 -1.1998 165.882 2.75966 76.9625 -10.2703 -36.2413 4.83137 73.516 -17.0394 -17.331 30.7979 -0.903691 7.39017 1.74516 5.3111 -88.9429 16.2332 3.98012 1.47594 4.5677 4.04125 1.29909 -17.9979 3.35252 2.60474 2.0148 3.35252 2.60474 121.158 -58.0663 -55.5236 20.4414 9.71009 -1.48603 -43.5515 -65.5244 -53.4434 17.9777 0.449853 -2.17468 -68.4947 -42.3776 112.402 -44.9847 -12.1754 -12.1734 8.33003 79.6285 -4.40801 -0.605351 -0.196112 -11.2092 -26.1131 -7.1991 -7.57201 -19.303 -7.08561 -7.30131 
-284.61 89.8913 279.668 83.4751 28.1828 83.5252 -179.884 -5.87082 77.2388 -0.00224814 -0.796525 -0.375036 67.6079 1.76825 12.3034 33.1661 -0.259142 -1.49796 166.335 3.45921 77.1609 -9.44791 -34.8421 3.90715 76.5177 -19.3907 -16.9674 26.9451 -0.40479 6.0294 1.66685 5.36092 -88.7843 16.1259 3.9056 1.81339 4.45981 3.98162 1.63953 -18.099 3.18015 2.90384 1.91368 3.18015 2.90384 121.19 -58.4261 -55.5872 21.4118 11.8016 -3.29578 -32.727 -65.7122 -43.2447 12.6514 0.656805 0.799154 -69.0302 -42.1265 111.564 -45.6713 -11.8747 -12.9786 7.13568 78.7661 -2.88369 -0.635002 -0.189992 -10.9161 -21.3976 -7.51517 -8.74342 -22.1404 -7.19153 -5.59491 
-284.958 89.7533 280.366 82.2548 28.8804 83.6034 179.797 -4.22707 76.9634 -0.0884352 -0.326126 -0.288835 66.784 1.77725 12.5126 34.1685 -0.412507 -0.709919 166.663 3.86715 77.6136 -8.20069 -33.8157 3.41401 78.1209 -21.29 -17.8293 26.8364 -0.227925 4.60357 1.54313 5.41978 -88.7337 16.0059 3.68665 1.95633 4.33896 3.76917 1.79203 -18.2133 2.92842 2.97411 1.79937 2.92844 2.97411 120.958 -58.2528 -55.8541 21.9418 12.3345 -4.43728 -24.5287 -64.1643 -35.8531 8.96822 0.646386 2.83975 -69.3543 -42.7678 110.915 -45.527 -11.8023 -13.6799 4.61769 78.1701 -0.26588 -1.10853 -0.161476 -10.823 -15.9052 -7.82838 -8.97061 -25.6308 -7.23936 -3.66525 
-285.086 89.6379 281.02 80.9716 29.75 83.4264 179.617 -2.73998 76.6529 -0.0869111 0.102886 -0.513808 66.3242 1.97097 12.5284 34.4236 -0.430895 -0.787564 166.619 4.71514 77.5566 -7.34934 -33.0034 3.32207 79.1562 -22.4709 -18.1876 25.0435 0.0976927 3.73892 1.38574 5.4891 -88.7066 15.8662 3.389 2.06462 4.19824 3.47655 1.91336 -18.347 2.61205 2.9877 1.66568 2.61207 2.9877 120.225 -57.6002 -56.6758 22.711 12.1757 -5.15166 -19.4699 -61.5139 -31.4975 6.16121 0.546892 4.65975 -69.4189 -43.9856 110.602 -45.2808 -11.5778 -14.5055 4.51815 76.8523 0.0491822 -1.56856 -0.132893 -10.4727 -10.4286 -7.67345 -8.42316 -28.8281 -7.00073 -1.53751 
-284.968 89.6058 281.364 79.9318 30.6127 83.4509 179.459 -1.71591 76.5034 -0.0710021 -0.0447416 -0.641563 65.8813 2.26356 11.8541 34.8764 -0.473352 -0.775028 165.819 5.00485 77.2737 -5.30844 -33.7227 4.14901 78.4457 -22.9098 -19.8058 23.3738 0.247401 4.11669 1.25226 5.57923 -88.7431 15.6878 3.10598 2.04247 4.01917 3.19287 1.90372 -18.522 2.34877 2.88142 1.49065 2.34878 2.88142 119.588 -56.8653 -57.3524 23.517 11.1576 -6.00072 -15.014 -58.4252 -27.3504 3.42672 0.339842 5.28198 -69.4596 -45.2797 110.323 -45.1347 -10.5155 -15.4728 4.35142 73.5115 0.0233513 -0.711142 -0.196482 -11.6674 -4.66101 -6.91389 -7.71623 -32.4689 -6.46336 1.06442 
-284.61 89.697 281.386 79.2461 31.4357 83.4099 178.656 -1.24299 76.1031 0.406235 0.38844 -0.5926 64.0083 3.29581 12.9854 38.0704 -0.8321 0.85756 164.086 5.1284 76.4961 -2.69905 -36.2217 6.10342 75.9983 -22.3165 -22.5278 24.0402 -0.0671303 5.76743 1.16015 5.68976 -88.8479 15.4711 2.87028 1.87531 3.80212 2.95001 1.74712 -18.7384 2.17415 2.65118 1.27426 2.17414 2.65118 118.427 -55.9336 -58.7317 24.5996 10.4331 -6.7828 -11.5256 -55.5435 -23.3012 0.466918 0.0670079 6.00376 -69.4086 -46.9451 110.138 -44.5296 -8.94826 -16.436 6.73302 70.8367 -3.97302 -0.593026 -0.203962 -11.6809 -0.723037 -5.34515 -6.37969 -34.5045 -5.4865 3.54573 
-284.283 90.1707 281.43 79.2147 32.2604 83.8327 -179.79 2.91527 76.6209 -7.53161 0.304257 -2.00213 61.8938 5.80682 12.9227 42.9085 -1.11601 5.28055 163.152 4.85543 76.5822 -1.7652 -36.6231 7.40114 74.4809 -21.918 -24.1549 24.1213 -0.434902 8.37257 1.17481 5.94162 -88.9884 14.9713 2.82683 1.61483 3.30254 2.89515 1.48879 -19.2411 2.21091 2.38979 0.771544 2.21092 2.3898 118.631 -56.0756 -58.4821 23.8929 6.89066 -7.3168 -7.59235 -49.6518 -20.677 -3.80678 -0.364074 7.36142 -69.2781 -47.5579 110.245 -44.1638 -6.47355 -18.3598 11.6942 68.0886 -11.119 -0.334782 -0.178998 -10.5831 3.81818 -3.59542 -6.05339 -35.9214 -4.24204 5.90312 
-283.965 90.7209 281.531 79.9275 33.2534 84.8756 -174.131 14.9552 77.8802 -32.4703 -0.743476 -3.39894 63.1956 6.76217 11.4193 48.992 -1.13291 9.62858 163.496 3.32611 77.8355 -1.31866 -35.215 7.58062 72.0936 -20.3889 -25.1231 27.0529 -0.998801 11.3588 1.22762 6.33056 -89.1693 14.1994 2.83945 1.27361 2.53103 2.89275 1.14732 -20.0172 2.32544 2.06831 -0.0045268 2.32543 2.06831 119.325 -58.2984 -58.1171 20.5373 2.68392 -9.01702 -1.57983 -42.3781 -15.6606 -8.38833 -0.83232 6.60055 -68.8917 -47.8313 110.8 -42.4781 -3.53433 -19.4622 22.8771 70.4403 -25.1579 4.32362 -0.880008 -17.0391 7.07702 -1.9991 -7.93018 -33.8905 -2.93461 9.46804 
-283.373 91.1853 281.045 79.9656 33.7822 85.3438 -171.644 23.0729 77.6279 -37.9783 3.08815 -4.37577 63.1717 5.95055 8.72801 47.1109 -1.22303 7.48315 163.618 2.79501 78.0721 -1.50075 -34.0306 7.41836 69.8608 -17.7819 -23.4757 31.4666 -1.19193 10.5152 1.30751 6.6289 -89.2166 13.603 2.97342 1.18273 1.93502 3.02261 1.05061 -20.6162 2.4805 2.022 -0.603551 2.48052 2.022 120.989 -59.9737 -56.3175 19.5066 3.41672 -13.7233 4.414 -40.4005 -5.69966 -12.8827 -0.952868 3.50785 -68.6713 -47.7586 111.154 -41.3506 -2.37679 -19.0873 20.8914 64.4872 -25.5945 2.12966 -0.393811 -12.0738 12.7052 -1.33226 -9.94197 -36.3238 -2.59098 12.8742 
